<svg width="23" height="26" viewBox="0 0 23 26" fill="none" xmlns="http://www.w3.org/2000/svg">
<path d="M0.413729 18.3586C0.0131642 17.6862 0.28979 16.8148 1.00488 16.4965L7.33836 13.6776C7.72118 13.5072 8.1625 13.5308 8.52498 13.741L12.144 15.8398C12.5046 16.0489 12.7437 16.4175 12.7877 16.832L13.5267 23.7914C13.6091 24.5674 12.9972 25.2421 12.2168 25.2357L9.28918 25.2116C8.5013 25.2051 7.89839 24.5079 8.00569 23.7273L8.59113 19.4683C8.63915 19.1189 8.47068 18.7753 8.16508 18.5993C7.85908 18.4231 7.47675 18.4502 7.19864 18.6678L3.86447 21.2764C3.24462 21.7613 2.33985 21.5922 1.93709 20.916L0.413729 18.3586Z" fill="white"/>
<path fill-rule="evenodd" clip-rule="evenodd" d="M14.1675 15.6494L19.7643 19.7663C20.0812 19.9994 20.5307 19.9016 20.7221 19.5578L22.1725 16.9524C22.3635 16.6093 22.2107 16.1764 21.8467 16.0291L17.8812 14.4249C17.3069 14.1926 16.931 13.6351 16.931 13.0155C16.931 12.4 17.3022 11.8451 17.8712 11.6102L21.8506 9.96756C22.2128 9.81803 22.3628 9.38542 22.1708 9.04378L20.7256 6.47198C20.5334 6.12994 20.0852 6.03331 19.7691 6.26579L14.1675 10.3861C14.0001 10.5092 13.9013 10.7046 13.9013 10.9123V15.1232C13.9013 15.3309 14.0001 15.5263 14.1675 15.6494ZM13.7804 16.1756C13.4457 15.9294 13.2481 15.5387 13.2481 15.1232V10.9123C13.2481 10.4968 13.4457 10.1061 13.7804 9.85995L19.3821 5.7396C20.0142 5.27465 20.9106 5.4679 21.2951 6.15198L22.7402 8.72378C23.1242 9.40706 22.8243 10.2723 22.0998 10.5713L18.1205 12.214C17.7959 12.348 17.5842 12.6644 17.5842 13.0155C17.5842 13.3689 17.7986 13.6869 18.1261 13.8194L22.0917 15.4236C22.8197 15.7181 23.1252 16.5839 22.7432 17.2701L21.2928 19.8756C20.9101 20.563 20.011 20.7587 19.3772 20.2925L13.7804 16.1756Z" fill="#2DEBFC"/>
<path d="M12.1441 10.1477C12.5047 9.93857 12.7438 9.56997 12.7878 9.1555L13.5255 2.20827C13.6083 1.42793 12.9894 0.751142 12.2048 0.764099L9.27676 0.812452C8.4933 0.82539 7.89739 1.52032 8.00409 2.29658L8.59101 6.56637C8.63916 6.91665 8.4702 7.26116 8.16376 7.43754C7.85833 7.61334 7.47695 7.58719 7.19838 7.37134L3.81845 4.7525C3.19711 4.27107 2.29439 4.44336 1.89404 5.1198L0.408119 7.63044C0.0102085 8.30276 0.287421 9.1717 1.00116 9.48937L7.33845 12.3099C7.72127 12.4803 8.16258 12.4567 8.52506 12.2465L12.1441 10.1477Z" fill="#2C85FC"/>
</svg>
